<svg xmlns="http://www.w3.org/2000/svg" width="1706" height="856" style="shape-rendering:geometricPrecision;text-rendering:geometricPrecision;image-rendering:optimizeQuality;fill-rule:evenodd;clip-rule:evenodd"><path style="opacity:.99" fill="#cb147e" d="M167.5-.5h24c42.786 12.202 61.619 40.536 56.5 85-2.226 10.36-6.559 19.694-13 28l-59 59c-37.469 44.477-46.136 94.143-26 149 5.409 12.715 12.409 24.382 21 35A3623.444 3623.444 0 0 0 295.5 479c44.556 30.601 91.889 35.601 142 15 12.355-5.839 23.688-13.172 34-22l106-106a428.268 428.268 0 0 1 56-42c34.492-16.368 64.659-10.535 90.5 17.5 17.768 26.115 19.101 53.115 4 81a84.943 84.943 0 0 1-14.5 16.5 300.816 300.816 0 0 0-41 30l-106 106c-78.597 66.643-167.93 86.643-268 60-42.103-12.872-79.103-34.206-111-64L78 461.5C32.656 413.805 6.489 357.138-.5 291.5v-50c6.466-62.59 30.633-117.257 72.5-164L134.5 15c9.937-7.582 20.937-12.75 33-15.5Z"/><path style="opacity:.989" fill="#cb147e" d="M1705.5 305.5v25c-3.22 13.447-9.39 25.447-18.5 36-68.11 68.113-136.28 136.279-204.5 204.5-71.52 68.059-156.18 93.726-254 77-47.57-10.289-89.91-30.955-127-62A72870.37 72870.37 0 0 1 780 265.5c-15.655-19.606-20.322-41.606-14-66 11.275-31.77 33.775-48.437 67.5-50 18.37.176 34.37 6.343 48 18.5 103.667 105 208 209.333 313 313 45.9 34.937 95.57 41.271 149 19 9.2-4.54 17.86-9.874 26-16a34096.594 34096.594 0 0 0 220-219c28.96-22.063 58.63-23.063 89-3 14.23 11.366 23.23 25.866 27 43.5Z"/><path style="opacity:.983" fill="#cb147e" d="M814.5 501.5c40.438-2.797 76.105 8.703 107 34.5 34.18 34.014 68.18 68.18 102 102.5-130 1.333-260 1.333-390 0a16862.387 16862.387 0 0 1 110-108.5c21.249-15.69 44.915-25.19 71-28.5Z"/></svg>