<?xml version="1.0" encoding="UTF-8"?>
<!DOCTYPE svg PUBLIC "-//W3C//DTD SVG 1.1//EN" "http://www.w3.org/Graphics/SVG/1.1/DTD/svg11.dtd">
<svg xmlns="http://www.w3.org/2000/svg" version="1.1" width="1706px" height="654px" style="shape-rendering:geometricPrecision; text-rendering:geometricPrecision; image-rendering:optimizeQuality; fill-rule:evenodd; clip-rule:evenodd" xmlns:xlink="http://www.w3.org/1999/xlink">
<g><path style="opacity:1" fill="#fffefe" d="M 167.5,-0.5 C 175.5,-0.5 183.5,-0.5 191.5,-0.5C 234.286,11.7023 253.119,40.0356 248,84.5C 245.774,94.8602 241.441,104.194 235,112.5C 215.333,132.167 195.667,151.833 176,171.5C 145.382,206.951 133.882,247.951 141.5,294.5C 141.294,297.495 141.96,300.162 143.5,302.5C 147.764,316.036 153.431,329.036 160.5,341.5C 160.427,343.027 161.094,344.027 162.5,344.5C 162.427,346.027 163.094,347.027 164.5,347.5C 166.543,348.579 167.876,350.246 168.5,352.5C 168.427,354.027 169.094,355.027 170.5,355.5C 206.806,392.14 243.139,428.806 279.5,465.5C 280.262,467.262 281.596,468.262 283.5,468.5C 322.567,503.154 367.567,513.987 418.5,501C 438.413,495.215 456.079,485.548 471.5,472C 506.833,436.667 542.167,401.333 577.5,366C 595.035,350.461 613.702,336.461 633.5,324C 667.992,307.632 698.159,313.465 724,341.5C 739.348,362.684 742.682,385.684 734,410.5C 729.492,421.674 722.659,431.174 713.5,439C 698.991,447.841 685.325,457.841 672.5,469C 637.167,504.333 601.833,539.667 566.5,575C 490.28,639.802 403.28,660.469 305.5,637C 261.164,624.68 222.497,602.846 189.5,571.5C 188.738,569.738 187.404,568.738 185.5,568.5C 149.535,533.035 113.701,497.368 78,461.5C 32.6557,413.805 6.48903,357.138 -0.5,291.5C -0.5,274.833 -0.5,258.167 -0.5,241.5C 5.96622,178.91 30.1329,124.243 72,77.5C 92.8333,56.6667 113.667,35.8333 134.5,15C 144.437,7.4176 155.437,2.25093 167.5,-0.5 Z"/></g>
<g><path style="opacity:1" fill="#fffefe" d="M 1705.5,305.5 C 1705.5,313.833 1705.5,322.167 1705.5,330.5C 1702.28,343.947 1696.11,355.947 1687,366.5C 1658.02,395.647 1628.85,424.647 1599.5,453.5C 1597.5,453.5 1596.5,454.5 1596.5,456.5C 1592.83,458.167 1590.17,460.833 1588.5,464.5C 1586.5,467.167 1584.17,469.5 1581.5,471.5C 1578.83,472.167 1577.17,473.833 1576.5,476.5C 1574.5,479.167 1572.17,481.5 1569.5,483.5C 1567.5,483.5 1566.5,484.5 1566.5,486.5C 1532.31,521.856 1497.31,556.356 1461.5,590C 1414.15,627.953 1360.15,649.12 1299.5,653.5C 1289.17,653.5 1278.83,653.5 1268.5,653.5C 1251.73,652.15 1235.06,649.483 1218.5,645.5C 1216.9,643.926 1214.9,643.259 1212.5,643.5C 1211.83,643.5 1211.17,643.5 1210.5,643.5C 1208.9,641.926 1206.9,641.259 1204.5,641.5C 1184.38,635.931 1165.38,627.931 1147.5,617.5C 1147.03,616.094 1146.03,615.427 1144.5,615.5C 1143.51,615.672 1142.84,615.338 1142.5,614.5C 1142.03,613.094 1141.03,612.427 1139.5,612.5C 1138.51,612.672 1137.84,612.338 1137.5,611.5C 1137.03,610.094 1136.03,609.427 1134.5,609.5C 1130.98,608.241 1127.98,606.241 1125.5,603.5C 1125.03,602.094 1124.03,601.427 1122.5,601.5C 1120.77,600.974 1119.44,599.974 1118.5,598.5C 1118.03,597.094 1117.03,596.427 1115.5,596.5C 1114.83,596.5 1114.5,596.167 1114.5,595.5C 1114.03,594.094 1113.03,593.427 1111.5,593.5C 1104.08,588.255 1097.08,582.422 1090.5,576C 985.639,471.473 881.139,366.639 777,261.5C 763.686,242.594 760.02,221.928 766,199.5C 775.304,171.528 794.471,155.028 823.5,150C 842.561,147.579 859.895,151.912 875.5,163C 978.446,265.946 1081.45,368.946 1184.5,472C 1231.48,514.661 1284.48,523.994 1343.5,500C 1354.64,494.516 1364.97,487.849 1374.5,480C 1446.17,408.333 1517.83,336.667 1589.5,265C 1618.46,242.937 1648.13,241.937 1678.5,262C 1692.73,273.366 1701.73,287.866 1705.5,305.5 Z"/></g>
<g><path style="opacity:0.988" fill="#ffdced" d="M 141.5,294.5 C 142.768,296.905 143.435,299.572 143.5,302.5C 141.96,300.162 141.294,297.495 141.5,294.5 Z"/></g>
<g><path style="opacity:0.831" fill="#ffd9ea" d="M 160.5,341.5 C 161.906,341.973 162.573,342.973 162.5,344.5C 161.094,344.027 160.427,343.027 160.5,341.5 Z"/></g>
<g><path style="opacity:0.875" fill="#ffd6e9" d="M 162.5,344.5 C 163.906,344.973 164.573,345.973 164.5,347.5C 163.094,347.027 162.427,346.027 162.5,344.5 Z"/></g>
<g><path style="opacity:0.976" fill="#ffd9eb" d="M 168.5,352.5 C 169.906,352.973 170.573,353.973 170.5,355.5C 169.094,355.027 168.427,354.027 168.5,352.5 Z"/></g>
<g><path style="opacity:0.035" fill="#ffd6e9" d="M 1599.5,453.5 C 1598.83,454.833 1597.83,455.833 1596.5,456.5C 1596.5,454.5 1597.5,453.5 1599.5,453.5 Z"/></g>
<g><path style="opacity:0.035" fill="#ffd7e9" d="M 1596.5,456.5 C 1594.17,459.5 1591.5,462.167 1588.5,464.5C 1590.17,460.833 1592.83,458.167 1596.5,456.5 Z"/></g>
<g><path style="opacity:0.027" fill="#ffcfe5" d="M 279.5,465.5 C 281.404,465.738 282.738,466.738 283.5,468.5C 281.596,468.262 280.262,467.262 279.5,465.5 Z"/></g>
<g><path style="opacity:0.035" fill="#ffd8ea" d="M 1581.5,471.5 C 1580.17,473.5 1578.5,475.167 1576.5,476.5C 1577.17,473.833 1578.83,472.167 1581.5,471.5 Z"/></g>
<g><path style="opacity:0.035" fill="#ffd2e7" d="M 1569.5,483.5 C 1568.83,484.833 1567.83,485.833 1566.5,486.5C 1566.5,484.5 1567.5,483.5 1569.5,483.5 Z"/></g>
<g><path style="opacity:1" fill="#fffefe" d="M 1022.5,637.5 C 994.5,638.167 966.5,638.833 938.5,639.5C 884.167,639.5 829.833,639.5 775.5,639.5C 728.833,638.833 682.167,638.167 635.5,637.5C 672.022,599.811 709.356,562.978 747.5,527C 791.807,497.94 838.474,493.607 887.5,514C 899.855,519.839 911.188,527.172 921.5,536C 955.368,569.701 989.035,603.535 1022.5,637.5 Z"/></g>
<g><path style="opacity:0.929" fill="#ffd9ea" d="M 185.5,568.5 C 187.404,568.738 188.738,569.738 189.5,571.5C 187.596,571.262 186.262,570.262 185.5,568.5 Z"/></g>
<g><path style="opacity:0.831" fill="#ffd4e8" d="M 1111.5,593.5 C 1113.03,593.427 1114.03,594.094 1114.5,595.5C 1112.97,595.573 1111.97,594.906 1111.5,593.5 Z"/></g>
<g><path style="opacity:0.859" fill="#ffd5e9" d="M 1115.5,596.5 C 1117.03,596.427 1118.03,597.094 1118.5,598.5C 1116.97,598.573 1115.97,597.906 1115.5,596.5 Z"/></g>
<g><path style="opacity:0.875" fill="#ffd6e9" d="M 1122.5,601.5 C 1124.03,601.427 1125.03,602.094 1125.5,603.5C 1123.97,603.573 1122.97,602.906 1122.5,601.5 Z"/></g>
<g><path style="opacity:0.792" fill="#ffd4e8" d="M 1134.5,609.5 C 1136.03,609.427 1137.03,610.094 1137.5,611.5C 1135.97,611.573 1134.97,610.906 1134.5,609.5 Z"/></g>
<g><path style="opacity:0.831" fill="#ffd6e9" d="M 1139.5,612.5 C 1141.03,612.427 1142.03,613.094 1142.5,614.5C 1140.97,614.573 1139.97,613.906 1139.5,612.5 Z"/></g>
<g><path style="opacity:0.725" fill="#ffd2e7" d="M 1144.5,615.5 C 1146.03,615.427 1147.03,616.094 1147.5,617.5C 1145.97,617.573 1144.97,616.906 1144.5,615.5 Z"/></g>
<g><path style="opacity:0.933" fill="#fff1f7" d="M 635.5,637.5 C 682.167,638.167 728.833,638.833 775.5,639.5C 728.162,639.833 680.829,639.5 633.5,638.5C 633.957,637.702 634.624,637.369 635.5,637.5 Z"/></g>
<g><path style="opacity:0.934" fill="#fff5f9" d="M 1022.5,637.5 C 1023.04,637.56 1023.38,637.893 1023.5,638.5C 995.175,639.5 966.841,639.833 938.5,639.5C 966.5,638.833 994.5,638.167 1022.5,637.5 Z"/></g>
<g><path style="opacity:0.973" fill="#ffd3e8" d="M 1204.5,641.5 C 1206.9,641.259 1208.9,641.926 1210.5,643.5C 1208.21,643.405 1206.21,642.738 1204.5,641.5 Z"/></g>
<g><path style="opacity:0.988" fill="#ffd9eb" d="M 1212.5,643.5 C 1214.9,643.259 1216.9,643.926 1218.5,645.5C 1216.21,645.405 1214.21,644.738 1212.5,643.5 Z"/></g>
</svg>
